<svg xmlns="http://www.w3.org/2000/svg" x="0px" y="0px" viewBox="17.5 9.56890869140625 29 42.90509033203125" enable-background="new 0 0 64 64">
<g>
	<path fill="none" stroke="#DA0AC6FF" stroke-width="1" stroke-linecap="round" stroke-linejoin="round" stroke-miterlimit="10" d="   M40.657,18.264c-0.847-5.305-5.834-8.919-11.139-8.072l0,0c-5.305,0.847-8.919,5.834-8.072,11.139l0.828,5.184"/>
</g>
<g>
	
		<path fill="#ECE3DAFF" stroke="#DA0AC6FF" stroke-width="1" stroke-linecap="round" stroke-linejoin="round" stroke-miterlimit="10" d="   M20.367,26.823l6.375-2.567c3.253-1.31,6.885-1.327,10.15-0.048l6.708,2.628c1.448,0.567,2.4,1.963,2.4,3.518v6.495   c0,8.353-6.268,15.125-14,15.125h0c-7.732,0-14-6.772-14-15.125v-6.521C18,28.786,18.937,27.399,20.367,26.823z"/>
</g>
<g>
	<g>
	</g>
	
		<path fill="#ECE3DAFF" stroke="#536DFE" stroke-width="1" stroke-linecap="round" stroke-linejoin="round" stroke-miterlimit="10" d="   M35.5,34.776c0-1.933-1.567-3.5-3.5-3.5s-3.5,1.567-3.5,3.5c0,1.292,0.708,2.408,1.75,3.015v3.985c0,0.966,0.784,1.75,1.75,1.75   s1.75-0.784,1.75-1.75v-3.985C34.792,37.184,35.5,36.068,35.5,34.776z"/>
</g>
</svg>