<?xml version="1.0" encoding="UTF-8"?>
<!DOCTYPE svg PUBLIC "-//W3C//DTD SVG 1.1//EN" "http://www.w3.org/Graphics/SVG/1.1/DTD/svg11.dtd">
<!-- Creator: CorelDRAW 2019 (64-Bit) -->
<svg xmlns="http://www.w3.org/2000/svg" xml:space="preserve" width="150.352mm" height="150.352mm" version="1.1" style="shape-rendering:geometricPrecision; text-rendering:geometricPrecision; image-rendering:optimizeQuality; fill-rule:evenodd; clip-rule:evenodd"
viewBox="0 0 519.49 519.49"
 xmlns:xlink="http://www.w3.org/1999/xlink"
 xmlns:xodm="http://www.corel.com/coreldraw/odm/2003">
 <defs>
  <style type="text/css">
   <![CDATA[
    .fil5 {fill:none}
    .fil0 {fill:#FEFEFE}
    .fil4 {fill:#373435}
    .fil1 {fill:#FFF212}
    .fil3 {fill:#EC268F}
    .fil2 {fill:#00AFEF}
   ]]>
  </style>
   <clipPath id="id0">
    <path d="M259.12 19.72c132.56,0 240.03,107.46 240.03,240.03 0,132.56 -107.46,240.03 -240.03,240.03 -132.56,0 -240.03,-107.46 -240.03,-240.03 0,-132.56 107.46,-240.03 240.03,-240.03z"/>
   </clipPath>
    <clipPath id="id1">
     <path d="M259.12 19.72c132.56,0 240.03,107.46 240.03,240.03 0,132.56 -107.46,240.03 -240.03,240.03 -132.56,0 -240.03,-107.46 -240.03,-240.03 0,-132.56 107.46,-240.03 240.03,-240.03z"/>
    </clipPath>
     <clipPath id="id2">
      <path d="M259.12 19.72c132.56,0 240.03,107.46 240.03,240.03 0,132.56 -107.46,240.03 -240.03,240.03 -132.56,0 -240.03,-107.46 -240.03,-240.03 0,-132.56 107.46,-240.03 240.03,-240.03z"/>
     </clipPath>
     <clipPath id="id3">
      <path d="M259.12 19.72c132.56,0 240.03,107.46 240.03,240.03 0,132.56 -107.46,240.03 -240.03,240.03 -132.56,0 -240.03,-107.46 -240.03,-240.03 0,-132.56 107.46,-240.03 240.03,-240.03z"/>
     </clipPath>
    <clipPath id="id4">
     <path d="M259.12 19.72c132.56,0 240.03,107.46 240.03,240.03 0,132.56 -107.46,240.03 -240.03,240.03 -132.56,0 -240.03,-107.46 -240.03,-240.03 0,-132.56 107.46,-240.03 240.03,-240.03z"/>
    </clipPath>
 </defs>
 <g id="Capa_x0020_1">
  <metadata id="CorelCorpID_0Corel-Layer"/>
  <circle class="fil0" cx="259.75" cy="259.75" r="259.75"/>
  <g>
  </g>
  <g style="clip-path:url(#id0)">
   <g>
    <g>
    </g>
   </g>
   <g style="clip-path:url(#id1)">
    <g>
     <g>
     </g>
    </g>
    <g style="clip-path:url(#id2)">
     <g>
      <circle class="fil1" cx="260.67" cy="-103.21" r="366.48"/>
      <circle class="fil2" cx="597.65" cy="477.57" r="366.48"/>
      <circle class="fil3" cx="-79.41" cy="477.57" r="366.48"/>
      <path class="fil4" d="M-34.62 113.82c102.61,12.51 192.13,67.44 250.5,146.73 -102.61,-12.51 -192.13,-67.45 -250.5,-146.73z"/>
      <path class="fil4" d="M259.12 337.02c18,43.29 27.95,90.76 27.95,140.55 0,49.79 -9.95,97.26 -27.95,140.54 -18,-43.29 -27.95,-90.75 -27.95,-140.54 0,-49.79 9.95,-97.26 27.95,-140.55z"/>
      <path class="fil4" d="M556.24 113.43c-59.01,80.35 -149.98,135.78 -254.17,147.5 59.01,-80.36 149.98,-135.78 254.17,-147.5z"/>
     </g>
    </g>
    <g style="clip-path:url(#id3)">
     <path class="fil5" d="M259.12 -117.19c202.4,0 366.48,164.08 366.48,366.48 0,202.4 -164.08,366.48 -366.48,366.48 -202.4,0 -366.48,-164.08 -366.48,-366.48 0,-202.4 164.08,-366.48 366.48,-366.48z"/>
    </g>
   </g>
   <g style="clip-path:url(#id4)">
    <polygon class="fil5" points="18.68,8.85 499.56,8.85 499.56,510.65 18.68,510.65 "/>
   </g>
  </g>
  <path class="fil5" d="M259.12 19.72c132.56,0 240.03,107.46 240.03,240.03 0,132.56 -107.46,240.03 -240.03,240.03 -132.56,0 -240.03,-107.46 -240.03,-240.03 0,-132.56 107.46,-240.03 240.03,-240.03z"/>
 </g>
</svg>
