<svg width="259" height="132" viewBox="0 0 259 132" fill="none" xmlns="http://www.w3.org/2000/svg">
<g filter="url(#filter0_d_24_470)">
<path d="M77.0679 2.85352H54.4609V60.9786H70.7662V44.4544H77.0678C91.0101 44.4544 99.6747 38.2269 99.6747 24.4428C99.6747 11.4062 92.3493 2.85352 77.0679 2.85352ZM77.0679 30.3384H70.7663V18.4643H77.0679C81.1639 18.4643 83.2119 20.9554 83.2119 24.4428C83.2119 28.1795 81.0064 30.3384 77.0679 30.3384ZM112.951 17.883C100.742 17.883 91.841 27.6811 91.841 40.0535C91.841 53.1732 100.978 62.0579 114.448 62.0579C122.246 62.0579 128.548 58.1552 131.383 52.9239L121.852 46.9454C120.592 48.5231 117.993 50.4329 114.448 50.4329C109.8 50.4329 106.807 48.1079 105.704 44.1221L133.353 44.0391C135.164 27.0168 124.767 17.883 112.951 17.883ZM105.704 35.9848C106.728 32.0821 109.328 29.5079 112.951 29.5079C117.126 29.5079 119.568 31.999 120.356 35.9017L105.704 35.9848ZM153.167 17.883C148.283 17.883 144.975 19.6268 142.691 22.2839V18.8794H128.512V86.528H142.691V57.5741C144.975 60.3142 148.283 62.058 153.167 62.058C165.534 62.058 171.678 51.0143 171.678 39.9706C171.678 28.9267 165.534 17.883 153.167 17.883ZM150.253 47.4437C146.078 47.4437 143.163 44.4543 143.163 39.9705C143.163 35.4865 146.078 32.4142 150.253 32.4142C154.664 32.4142 157.421 35.5696 157.421 39.9705C157.421 44.2883 154.664 47.4437 150.253 47.4437ZM185.348 17.883C173.139 17.883 164.238 27.6811 164.238 40.0535C164.238 53.1732 173.375 62.0579 186.845 62.0579C194.643 62.0579 200.945 58.1552 203.78 52.9239L194.249 46.9454C192.989 48.5231 190.389 50.4329 186.845 50.4329C182.197 50.4329 179.204 48.1079 178.101 44.1221L205.75 44.0391C207.561 27.0168 197.164 17.883 185.348 17.883ZM178.101 35.9848C179.125 32.0821 181.725 29.5079 185.348 29.5079C189.523 29.5079 191.965 31.999 192.753 35.9017L178.101 35.9848ZM219.893 34.9053C216.742 34.2409 213.118 33.9089 213.118 31.3348C213.118 29.3419 214.772 28.2626 217.293 28.2626C219.656 28.2626 221.074 29.5079 221.625 31.4177L232.968 28.5115C231.235 21.3704 224.067 17.883 217.214 17.883C207.21 17.883 199.412 22.9481 199.412 31.7499C199.412 39.9706 204.217 42.8768 211.937 44.7036C216.584 45.783 219.971 45.9489 219.971 48.5232C219.971 50.2669 218.553 51.5125 215.875 51.5125C212.331 51.5125 210.991 49.6026 210.598 48.025L198.152 52.0938C199.806 59.4839 207.998 62.058 216.033 62.058C227.769 62.058 234.701 56.8268 234.701 47.942C234.701 40.2197 229.975 37.1473 219.893 34.9053Z" fill="white"/>
</g>
<path d="M33.0318 63.3163C49.6178 63.3163 63.0635 49.1424 63.0635 31.6581C63.0635 14.1738 49.6178 0 33.0318 0C16.4457 0 3 14.1738 3 31.6581C3 49.1424 16.4457 63.3163 33.0318 63.3163Z" fill="#FEFEFE"/>
<g filter="url(#filter1_d_24_470)">
<mask id="mask0_24_470" style="mask-type:luminance" maskUnits="userSpaceOnUse" x="5" y="2" width="56" height="59">
<path d="M32.9591 2.4043C48.286 2.4043 60.7109 15.5021 60.7109 31.659C60.7109 47.816 48.286 60.9138 32.9591 60.9138C17.6322 60.9138 5.20728 47.816 5.20728 31.659C5.20728 15.5021 17.6322 2.4043 32.9591 2.4043Z" fill="white"/>
</mask>
<g mask="url(#mask0_24_470)">
<mask id="mask1_24_470" style="mask-type:luminance" maskUnits="userSpaceOnUse" x="5" y="2" width="56" height="59">
<path d="M32.9589 2.4082C48.2857 2.4082 60.7107 15.506 60.7107 31.6629C60.7107 47.8199 48.2857 60.9177 32.9589 60.9177C17.632 60.9177 5.20703 47.8199 5.20703 31.6629C5.20703 15.506 17.632 2.4082 32.9589 2.4082Z" fill="white"/>
</mask>
<g mask="url(#mask1_24_470)">
<mask id="mask2_24_470" style="mask-type:luminance" maskUnits="userSpaceOnUse" x="5" y="2" width="56" height="59">
<path d="M32.9586 2.41016C48.2855 2.41016 60.7104 15.508 60.7104 31.6649C60.7104 47.8218 48.2855 60.9196 32.9586 60.9196C17.6317 60.9196 5.20679 47.8218 5.20679 31.6649C5.20679 15.508 17.6317 2.41016 32.9586 2.41016Z" fill="white"/>
</mask>
<g mask="url(#mask2_24_470)">
<path d="M33.1385 32.094C56.5401 32.094 75.5109 12.0958 75.5109 -12.5731C75.5109 -37.2421 56.5401 -57.2402 33.1385 -57.2402C9.73688 -57.2402 -9.23389 -37.2421 -9.23389 -12.5731C-9.23389 12.0958 9.73688 32.094 33.1385 32.094Z" fill="#FFF212"/>
<path d="M72.0999 102.88C95.5016 102.88 114.472 82.882 114.472 58.213C114.472 33.544 95.5016 13.5459 72.0999 13.5459C48.6983 13.5459 29.7275 33.544 29.7275 58.213C29.7275 82.882 48.6983 102.88 72.0999 102.88Z" fill="#00AFEF"/>
<path d="M-6.18204 102.88C17.2196 102.88 36.1904 82.882 36.1904 58.213C36.1904 33.544 17.2196 13.5459 -6.18204 13.5459C-29.5837 13.5459 -48.5544 33.544 -48.5544 58.213C-48.5544 82.882 -29.5837 102.88 -6.18204 102.88Z" fill="#EC268F"/>
<path fill-rule="evenodd" clip-rule="evenodd" d="M-1.00342 13.8799C10.86 15.4052 21.2107 22.0998 27.9597 31.7631C16.0958 30.2382 5.74578 23.5424 -1.00342 13.8799Z" fill="#373435"/>
<path fill-rule="evenodd" clip-rule="evenodd" d="M32.9586 41.0811C35.0392 46.3569 36.1902 52.1426 36.1902 58.2114C36.1902 64.2802 35.0392 70.0649 32.9586 75.3407C30.878 70.0649 29.7273 64.2802 29.7273 58.2114C29.7273 52.1426 30.878 46.3569 32.9586 41.0811Z" fill="#373435"/>
<path fill-rule="evenodd" clip-rule="evenodd" d="M67.3119 13.8311C60.4893 23.6247 49.9715 30.3801 37.9248 31.8087C44.747 22.0141 55.2657 15.2603 67.3119 13.8311Z" fill="#373435"/>
</g>
</g>
</g>
</g>
<g filter="url(#filter2_d_24_470)">
<path d="M16.1761 83.9985C14.6614 83.9985 13.5818 83.4422 12.9375 82.3297C12.2933 81.2171 12.2024 79.4501 12.6649 77.0285C13.2975 73.7171 14.4029 71.5705 15.981 70.5888C16.4881 70.2746 16.9949 70.0586 17.5017 69.941C18.0084 69.8231 18.7368 69.7642 19.6866 69.7642C20.6364 69.7642 21.5955 69.8951 22.5637 70.1568L21.954 72.0809C20.8217 71.8976 19.7622 71.8061 18.7751 71.8061C17.788 71.8061 17.1291 71.9565 16.7985 72.2577C16.0624 72.9252 15.4508 74.535 14.9632 77.0874C14.7357 78.2786 14.6518 79.2701 14.7117 80.062C14.7715 80.8538 14.9217 81.384 15.1621 81.6523C15.4027 81.9207 15.8054 82.0548 16.3704 82.0548C16.9354 82.0548 17.5458 81.9632 18.2016 81.78C18.8575 81.5967 19.5792 81.3285 20.3668 80.9751L20.7036 82.7225C20.5495 82.8141 20.3376 82.9318 20.068 83.0758C19.7984 83.2197 19.2685 83.4096 18.4786 83.6452C17.6886 83.8807 16.9211 83.9986 16.1761 83.9986V83.9985ZM26.2493 83.9985C23.1451 83.9985 21.9749 81.9992 22.7388 78.0005C23.5026 74.0017 25.4242 72.0024 28.5035 72.0024C29.8817 72.0024 30.8354 72.4213 31.3646 73.259C31.8937 74.0967 31.9732 75.4841 31.6032 77.4212L31.3332 78.8349H24.8331C24.5555 80.2877 24.6089 81.2432 24.9933 81.7013C25.2487 81.9893 25.6371 82.1332 26.1586 82.1332C27.1644 82.1332 28.2635 81.9369 29.4561 81.5442L30.0746 81.3283L30.2661 83.056C28.9292 83.6842 27.5903 83.9984 26.2494 83.9984L26.2493 83.9985ZM29.5928 76.4396C29.6078 76.3611 29.6348 76.1876 29.6735 75.9193C29.7124 75.651 29.7312 75.4875 29.7301 75.4285C29.7289 75.3696 29.7322 75.2387 29.7399 75.0358C29.7477 74.8329 29.7341 74.7086 29.6994 74.6627C29.6648 74.6169 29.6258 74.5286 29.5824 74.3977C29.5392 74.2668 29.4772 74.1851 29.3966 74.1523C29.3159 74.1195 29.2258 74.0705 29.1267 74.0051C28.9704 73.9134 28.647 73.8676 28.1565 73.8676C27.6661 73.8676 27.2512 73.9265 26.9122 74.0443C26.5731 74.1621 26.291 74.3715 26.0658 74.6725C25.8407 74.9735 25.6696 75.3008 25.5524 75.6541C25.4353 76.0076 25.3106 76.4985 25.1781 77.1267L29.4805 77.0284L29.593 76.4395L29.5928 76.4396ZM32.2364 83.7433L34.4304 72.2577H35.8459L35.8705 73.3963H35.9636C37.6684 72.467 39.0454 72.0023 40.0946 72.0023C41.1439 72.0023 41.789 72.3623 42.0302 73.0822C42.2713 73.8021 42.2645 74.8295 42.0095 76.1647L40.5618 83.7433H38.4013L39.7402 76.7341C39.9627 75.5691 40.032 74.8329 39.9479 74.5252C39.8639 74.2177 39.5798 74.0639 39.0956 74.0639C38.6112 74.0639 38.0728 74.1686 37.4804 74.3781C36.8879 74.5875 36.4163 74.797 36.066 75.0063L34.3971 83.7433H32.2367H32.2364ZM43.7485 80.0129L44.7797 74.6136H43.5319L43.8019 73.2L45.1954 72.9252L46.1413 70.2157H47.7989L47.2888 72.8858H49.4679L49.1303 74.6529H46.9327L45.8901 80.111C45.7226 80.988 45.6721 81.5278 45.739 81.7307C45.8058 81.9336 46.0626 82.035 46.5096 82.035L47.7129 81.9762L47.3641 83.802C46.9219 83.9068 46.4215 83.9591 45.8627 83.9591C44.8819 83.9591 44.2104 83.6875 43.8486 83.1444C43.4867 82.6012 43.4533 81.5573 43.7484 80.0129H43.7485ZM54.4945 72.4441C55.1404 72.1497 55.6436 72.0024 56.0037 72.0024C56.3638 72.0024 56.6827 72.0548 56.9608 72.1595L56.4032 74.2014C56.0978 74.1751 55.8209 74.1621 55.5725 74.1621C54.6413 74.1621 53.7357 74.4501 52.8559 75.026L51.1907 83.7434H49.0303L51.2243 72.2578H52.5839C52.578 72.8729 52.5949 73.2721 52.6346 73.4554H52.7463C53.2658 73.0758 53.8486 72.7387 54.4947 72.4441H54.4945ZM65.1712 78.0104C64.7963 79.9737 64.1766 81.4626 63.3123 82.477C62.448 83.4915 61.2182 83.9986 59.6226 83.9986C58.0271 83.9986 56.9878 83.4915 56.505 82.477C56.022 81.4626 55.9681 79.9737 56.3431 78.0104C56.7181 76.0469 57.3415 74.5548 58.2132 73.534C59.0849 72.5129 60.3186 72.0025 61.9141 72.0025C63.5095 72.0025 64.5451 72.513 65.0206 73.534C65.4961 74.5549 65.5463 76.047 65.1712 78.0104ZM58.3912 81.3776C58.5916 81.9207 59.1202 82.1923 59.9769 82.1923C60.8337 82.1923 61.463 81.9207 61.8646 81.3776C62.2665 80.8344 62.6304 79.7087 62.9568 78.0006C63.283 76.2925 63.3484 75.1702 63.153 74.6333C62.9574 74.0967 62.4314 73.8284 61.5747 73.8284C60.7179 73.8284 60.0861 74.0968 59.6794 74.6333C59.2728 75.1702 58.9062 76.2924 58.58 78.0006C58.2538 79.7087 58.1909 80.8344 58.3913 81.3776H58.3912ZM75.3956 76.3415H79.4371L78.1321 83.1739C76.9344 83.7237 75.5843 83.9985 74.082 83.9985C73.486 83.9985 72.9596 83.9429 72.5028 83.8316C72.046 83.7204 71.621 83.5078 71.2278 83.1936C70.8346 82.8794 70.5328 82.4605 70.3223 81.937C69.8744 80.7721 69.8642 79.0706 70.2916 76.8323C70.8341 73.9919 71.7096 72.0744 72.9177 71.0797C73.5218 70.5823 74.1493 70.2386 74.8002 70.0488C75.451 69.8591 76.3011 69.7642 77.3503 69.7642C78.3996 69.7642 79.4753 69.9017 80.5775 70.1764L79.953 72.0809C78.2869 71.8976 77.1683 71.8061 76.5971 71.8061C75.4423 71.8061 74.6922 71.9632 74.3466 72.2774C73.6455 72.8925 73.0631 74.4141 72.5993 76.8422C72.1355 79.2701 72.1428 80.8244 72.6213 81.5052C72.874 81.8716 73.4444 82.0548 74.3322 82.0548C75.2199 82.0548 75.87 81.9828 76.2824 81.8389L76.9912 78.1281L75.0767 78.0104L75.3956 76.3415ZM85.8685 72.4441C86.5146 72.1497 87.0177 72.0024 87.3778 72.0024C87.738 72.0024 88.0569 72.0548 88.335 72.1595L87.7773 74.2014C87.472 74.1751 87.195 74.1621 86.9467 74.1621C86.0155 74.1621 85.1099 74.4501 84.23 75.026L82.5649 83.7434H80.4044L82.5985 72.2578H83.958C83.9522 72.8729 83.9691 73.2721 84.0088 73.4554H84.1205C84.64 73.0758 85.2228 72.7387 85.8688 72.4441H85.8685ZM89.4417 83.9985C88.4856 83.9985 87.7795 83.6811 87.3234 83.0462C86.8672 82.4114 86.7599 81.4625 87.0011 80.1995C87.2423 78.9365 87.806 78.0168 88.6921 77.441C89.5781 76.865 90.7537 76.5771 92.2189 76.5771L94.0031 76.5967C94.2456 75.327 94.2963 74.5581 94.1551 74.2898C94.0139 74.0214 93.664 73.8872 93.1052 73.8872C92.5464 73.8872 91.9087 73.9593 91.1921 74.1032C90.4754 74.2471 89.7035 74.4696 88.8762 74.7707L88.6175 73.1019C88.8063 73.0234 89.0585 72.9219 89.3741 72.7976C89.6896 72.6733 90.2641 72.5097 91.0975 72.3068C91.931 72.1038 92.6766 72.0024 93.3347 72.0024C95.8057 72.0024 96.7711 73.4161 96.231 76.2433L94.7985 83.7433H93.4202L93.3586 82.5062H93.2653C93.1062 82.6241 92.8962 82.7648 92.6353 82.9284C92.3743 83.092 91.9041 83.3113 91.2246 83.5862C90.5451 83.8609 89.9507 83.9984 89.4417 83.9984V83.9985ZM93.6506 78.4422C93.1566 78.3637 92.4748 78.3244 91.6057 78.3244C90.7366 78.3244 90.1752 78.4357 89.9216 78.6582C89.5985 78.9199 89.3662 79.4206 89.2249 80.1602C89.0837 80.8997 89.0774 81.4036 89.2062 81.6719C89.335 81.9403 89.6012 82.0745 90.0047 82.0745C90.4083 82.0745 90.8696 81.9992 91.3888 81.8486C91.9081 81.6982 92.487 81.4789 93.1256 81.191L93.6507 78.4422H93.6506ZM91.0602 70.9423L90.9054 69.6072L96.1339 67.7812L96.3849 69.5876L91.0602 70.9423ZM97.4961 83.7434L99.2438 74.5942H97.996L98.2622 73.2001L99.5626 72.9253C99.9372 71.3546 100.493 70.2453 101.232 69.5975C101.97 68.9497 102.886 68.6256 103.979 68.6256L105.308 68.6845L104.807 70.53C104.193 70.4907 103.725 70.4711 103.402 70.4711C103.079 70.4711 102.835 70.517 102.668 70.6086C102.293 70.818 101.98 71.5772 101.731 72.886H104.133L103.796 74.6532H101.393L99.6565 83.7435H97.496L97.4961 83.7434ZM103.043 83.7434L105.238 72.2578H107.398L105.204 83.7434H103.043ZM105.362 70.7263L105.715 68.8808H108.211L107.858 70.7263H105.362ZM115.239 81.2107C115.291 81.6557 115.396 82.212 115.554 82.8795C115.427 82.958 115.256 83.0595 115.04 83.1838C114.823 83.3081 114.385 83.4751 113.724 83.6845C113.063 83.8938 112.41 83.9986 111.764 83.9986C110.336 83.9986 109.306 83.5078 108.674 82.5261C108.042 81.5445 107.923 80.0262 108.315 77.9711C108.75 75.6937 109.551 74.1033 110.716 73.2001C111.763 72.4017 113.019 72.0025 114.484 72.0025C115.453 72.0025 116.385 72.1268 117.281 72.3756L116.698 74.1622C115.379 73.979 114.36 73.8874 113.64 73.8874C112.92 73.8874 112.38 74.0445 112.023 74.3587C111.389 74.9476 110.888 76.2042 110.52 78.1283C110.153 80.0523 110.27 81.2893 110.873 81.839C111.096 82.0353 111.416 82.1335 111.832 82.1335C112.248 82.1335 112.738 82.055 113.302 81.898C113.866 81.741 114.511 81.5119 115.239 81.2108V81.2107ZM126.129 78.0105C125.754 79.9738 125.134 81.4627 124.27 82.4771C123.406 83.4916 122.176 83.9988 120.58 83.9988C118.985 83.9988 117.945 83.4916 117.462 82.4771C116.98 81.4627 116.926 79.9738 117.301 78.0105C117.676 76.047 118.299 74.5549 119.171 73.5341C120.042 72.513 121.276 72.0026 122.872 72.0026C124.467 72.0026 125.503 72.5132 125.978 73.5341C126.454 74.555 126.504 76.0471 126.129 78.0105ZM119.349 81.3777C119.549 81.9208 120.078 82.1924 120.935 82.1924C121.791 82.1924 122.421 81.9208 122.822 81.3777C123.224 80.8345 123.588 79.7088 123.914 78.0007C124.241 76.2926 124.306 75.1703 124.111 74.6335C123.915 74.0968 123.389 73.8285 122.532 73.8285C121.675 73.8285 121.044 74.0969 120.637 74.6335C120.23 75.1703 119.864 76.2925 119.538 78.0007C119.211 79.7088 119.148 80.8345 119.349 81.3777H119.349ZM145.739 83.7435L148.36 70.0196H150.539L148.207 81.7408L152.964 81.7016L152.574 83.7435H145.739ZM153.484 83.7435L155.678 72.2579H157.838L155.644 83.7435H153.484ZM155.803 70.7264L156.155 68.8809H158.651L158.298 70.7264H155.803ZM160.864 68.8809H163.025L162.357 72.3757C163.448 72.1269 164.347 72.0026 165.055 72.0026C167.513 72.0026 168.371 73.9463 167.629 77.8338C166.844 81.9437 165.104 83.9986 162.409 83.9986C161.838 83.9986 161.127 83.9202 160.275 83.7631C159.424 83.606 158.709 83.4162 158.13 83.1937L160.864 68.8809ZM160.55 81.839C161.235 82.0223 161.9 82.1138 162.546 82.1138C163.192 82.1138 163.633 82.0156 163.869 81.8193C164.463 81.3742 164.992 79.9345 165.457 77.4999C165.697 76.2434 165.801 75.3142 165.766 74.712C165.754 74.4502 165.672 74.2637 165.519 74.1524C165.367 74.0411 165.224 73.9757 165.091 73.956C164.959 73.9364 164.725 73.9266 164.389 73.9266C163.706 73.9266 162.905 74.0575 161.986 74.3192L160.55 81.8389L160.55 81.839ZM173.898 72.4444C174.544 72.1499 175.047 72.0026 175.407 72.0026C175.767 72.0026 176.086 72.0551 176.364 72.1597L175.807 74.2016C175.501 74.1754 175.224 74.1623 174.976 74.1623C174.045 74.1623 173.139 74.4504 172.259 75.0262L170.594 83.7436H168.434L170.628 72.258H171.988C171.982 72.8732 171.999 73.2724 172.038 73.4556H172.15C172.669 73.076 173.252 72.7389 173.898 72.4444H173.898ZM179.259 83.9988C176.155 83.9988 174.985 81.9994 175.749 78.0007C176.512 74.002 178.434 72.0026 181.513 72.0026C182.892 72.0026 183.845 72.4215 184.374 73.2592C184.904 74.0969 184.983 75.4843 184.613 77.4214L184.343 78.8351H177.843C177.565 80.288 177.619 81.2435 178.003 81.7016C178.259 81.9895 178.647 82.1334 179.168 82.1334C180.174 82.1334 181.273 81.9371 182.466 81.5445L183.085 81.3285L183.276 83.0562C181.939 83.6845 180.6 83.9986 179.259 83.9986L179.259 83.9988ZM182.603 76.4398C182.618 76.3613 182.645 76.1878 182.683 75.9196C182.722 75.6512 182.741 75.4877 182.74 75.4287C182.739 75.3698 182.742 75.239 182.75 75.036C182.758 74.8331 182.744 74.7088 182.709 74.663C182.675 74.6171 182.636 74.5288 182.592 74.3979C182.549 74.267 182.487 74.1853 182.406 74.1525C182.326 74.1197 182.236 74.0708 182.137 74.0053C181.98 73.9137 181.657 73.8678 181.166 73.8678C180.676 73.8678 180.261 73.9267 179.922 74.0445C179.583 74.1623 179.301 74.3718 179.076 74.6728C178.851 74.9738 178.679 75.301 178.562 75.6544C178.445 76.0078 178.32 76.4987 178.188 77.1269L182.49 77.0286L182.603 76.4397L182.603 76.4398ZM190.711 72.4444C191.357 72.1499 191.86 72.0026 192.22 72.0026C192.58 72.0026 192.899 72.0551 193.177 72.1597L192.619 74.2016C192.314 74.1754 192.037 74.1623 191.789 74.1623C190.857 74.1623 189.952 74.4504 189.072 75.0262L187.407 83.7436H185.246L187.44 72.258H188.8C188.794 72.8732 188.811 73.2724 188.851 73.4556H188.962C189.482 73.076 190.065 72.7389 190.711 72.4444H190.711ZM193.574 70.9424L193.419 69.6073L198.462 67.7814L198.709 69.6073L193.574 70.9424H193.574ZM192.116 83.7435L194.31 72.2579H196.47L194.276 83.7435H192.116ZM199.105 83.9986C198.149 83.9986 197.443 83.6812 196.986 83.0463C196.53 82.4115 196.423 81.4626 196.664 80.1996C196.905 78.9366 197.469 78.0169 198.355 77.4411C199.241 76.8651 200.417 76.5772 201.882 76.5772L203.666 76.5968C203.909 75.3271 203.959 74.5582 203.818 74.2899C203.677 74.0215 203.327 73.8873 202.768 73.8873C202.209 73.8873 201.572 73.9594 200.855 74.1033C200.138 74.2472 199.367 74.4697 198.539 74.7708L198.281 73.102C198.469 73.0235 198.722 72.922 199.037 72.7977C199.353 72.6734 199.927 72.5098 200.761 72.3069C201.594 72.1039 202.34 72.0025 202.998 72.0025C205.469 72.0025 206.434 73.4162 205.894 76.2434L204.462 83.7434H203.083L203.022 82.5064H202.928C202.769 82.6243 202.559 82.7649 202.298 82.9285C202.037 83.0921 201.567 83.3114 200.888 83.5863C200.208 83.861 199.614 83.9985 199.105 83.9985V83.9986ZM203.314 78.4423C202.82 78.3638 202.138 78.3245 201.269 78.3245C200.4 78.3245 199.838 78.4358 199.585 78.6583C199.262 78.92 199.029 79.4207 198.888 80.1603C198.747 80.8998 198.74 81.4037 198.869 81.672C198.998 81.9404 199.264 82.0746 199.668 82.0746C200.071 82.0746 200.533 81.9993 201.052 81.8487C201.571 81.6983 202.15 81.479 202.789 81.1911L203.314 78.4423H203.314Z" fill="white"/>
<path d="M133.401 83.999C132.11 83.999 131.151 83.59 130.525 82.7719C129.899 81.9538 129.68 81.0507 129.869 80.0625C130.058 79.0742 130.469 78.2561 131.101 77.6083C131.734 76.9604 132.413 76.4924 133.139 76.2045C132.214 75.4585 131.871 74.4572 132.111 73.2006C132.301 72.2058 132.787 71.3845 133.569 70.7366C134.351 70.0887 135.331 69.7646 136.511 69.7646C137.69 69.7646 138.521 70.0952 139.003 70.7562C139.486 71.4172 139.639 72.2058 139.464 73.122C139.209 74.457 138.355 75.5174 136.901 76.3026C137.695 76.9571 138.336 77.6967 138.824 78.5212C139.361 77.7882 139.876 76.9766 140.369 76.0867L142.104 76.6561C141.46 77.821 140.674 78.9793 139.746 80.1311C140.186 81.139 140.529 82.4021 140.773 83.9204L138.635 83.9989C138.585 83.4754 138.399 82.7619 138.075 81.8588C136.511 83.2855 134.953 83.9989 133.401 83.9989V83.999ZM133.011 78.3838C132.53 78.8551 132.23 79.4048 132.11 80.0331C131.99 80.6613 132.087 81.1751 132.402 81.5743C132.717 81.9735 133.172 82.1732 133.768 82.1732C134.364 82.1732 134.977 81.9899 135.605 81.6234C136.234 81.257 136.808 80.7857 137.328 80.2097C136.696 79.0319 135.857 78.0632 134.81 77.304C134.092 77.5528 133.492 77.9127 133.011 78.3838H133.011ZM135.319 75.321C135.806 75.1116 136.235 74.817 136.605 74.4374C136.976 74.0578 137.208 73.6226 137.302 73.1317C137.396 72.6409 137.346 72.2515 137.153 71.9636C136.959 71.6756 136.602 71.5316 136.08 71.5316C135.087 71.5316 134.49 72.0552 134.29 73.1022C134.108 74.0577 134.451 74.7973 135.319 75.3209V75.321Z" fill="#FEFEFE"/>
</g>
<path d="M196.798 18.6068L201.974 8.26855C204.884 9.34453 207.794 10.4202 210.705 11.4961C206.87 14.8895 203.229 18.339 201.563 22.3563C200.015 20.821 198.731 19.6007 196.798 18.6068H196.798Z" fill="white"/>
<defs>
<filter id="filter0_d_24_470" x="49.2641" y="2.85352" width="190.634" height="94.0685" filterUnits="userSpaceOnUse" color-interpolation-filters="sRGB">
<feFlood flood-opacity="0" result="BackgroundImageFix"/>
<feColorMatrix in="SourceAlpha" type="matrix" values="0 0 0 0 0 0 0 0 0 0 0 0 0 0 0 0 0 0 127 0" result="hardAlpha"/>
<feOffset dy="5.19685"/>
<feGaussianBlur stdDeviation="2.59843"/>
<feComposite in2="hardAlpha" operator="out"/>
<feColorMatrix type="matrix" values="0 0 0 0 0 0 0 0 0 0 0 0 0 0 0 0 0 0 0.25 0"/>
<feBlend mode="normal" in2="BackgroundImageFix" result="effect1_dropShadow_24_470"/>
<feBlend mode="normal" in="SourceGraphic" in2="effect1_dropShadow_24_470" result="shape"/>
</filter>
<filter id="filter1_d_24_470" x="0.0104251" y="2.41016" width="65.8969" height="68.8976" filterUnits="userSpaceOnUse" color-interpolation-filters="sRGB">
<feFlood flood-opacity="0" result="BackgroundImageFix"/>
<feColorMatrix in="SourceAlpha" type="matrix" values="0 0 0 0 0 0 0 0 0 0 0 0 0 0 0 0 0 0 127 0" result="hardAlpha"/>
<feOffset dy="5.19685"/>
<feGaussianBlur stdDeviation="2.59843"/>
<feComposite in2="hardAlpha" operator="out"/>
<feColorMatrix type="matrix" values="0 0 0 0 0 0 0 0 0 0 0 0 0 0 0 0 0 0 0.25 0"/>
<feBlend mode="normal" in2="BackgroundImageFix" result="effect1_dropShadow_24_470"/>
<feBlend mode="normal" in="SourceGraphic" in2="effect1_dropShadow_24_470" result="shape"/>
</filter>
<filter id="filter2_d_24_470" x="7.17815" y="67.7812" width="204.058" height="26.6115" filterUnits="userSpaceOnUse" color-interpolation-filters="sRGB">
<feFlood flood-opacity="0" result="BackgroundImageFix"/>
<feColorMatrix in="SourceAlpha" type="matrix" values="0 0 0 0 0 0 0 0 0 0 0 0 0 0 0 0 0 0 127 0" result="hardAlpha"/>
<feOffset dy="5.19685"/>
<feGaussianBlur stdDeviation="2.59843"/>
<feComposite in2="hardAlpha" operator="out"/>
<feColorMatrix type="matrix" values="0 0 0 0 0 0 0 0 0 0 0 0 0 0 0 0 0 0 0.25 0"/>
<feBlend mode="normal" in2="BackgroundImageFix" result="effect1_dropShadow_24_470"/>
<feBlend mode="normal" in="SourceGraphic" in2="effect1_dropShadow_24_470" result="shape"/>
</filter>
</defs>
</svg>
